<mxfile host="app.diagrams.net" modified="2024-04-23T17:57:24.073Z" agent="Mozilla/5.0 (Windows NT 10.0; Win64; x64) AppleWebKit/537.36 (KHTML, like Gecko) Chrome/124.0.0.0 Safari/537.36" etag="LYzi3eaP35FOl1JCE5ed" version="23.1.1" type="device" pages="2">
  <diagram id="C5RBs43oDa-KdzZeNtuy" name="Page-1">
    <mxGraphModel dx="1105" dy="658" grid="1" gridSize="10" guides="1" tooltips="1" connect="1" arrows="1" fold="1" page="1" pageScale="1" pageWidth="827" pageHeight="1169" math="0" shadow="0">
      <root>
        <mxCell id="WIyWlLk6GJQsqaUBKTNV-0" />
        <mxCell id="WIyWlLk6GJQsqaUBKTNV-1" parent="WIyWlLk6GJQsqaUBKTNV-0" />
        <mxCell id="PLZqTz8qko_gE4AXY9Jm-1" value="&lt;font style=&quot;font-size: 14px;&quot;&gt;commande&lt;/font&gt;" style="ellipse;whiteSpace=wrap;html=1;" vertex="1" parent="WIyWlLk6GJQsqaUBKTNV-1">
          <mxGeometry x="260" y="730" width="100" height="50" as="geometry" />
        </mxCell>
        <mxCell id="PLZqTz8qko_gE4AXY9Jm-3" value="" style="endArrow=classic;html=1;rounded=0;exitX=0;exitY=1;exitDx=0;exitDy=0;entryX=0.393;entryY=-0.036;entryDx=0;entryDy=0;entryPerimeter=0;" edge="1" parent="WIyWlLk6GJQsqaUBKTNV-1" source="PLZqTz8qko_gE4AXY9Jm-1" target="PLZqTz8qko_gE4AXY9Jm-10">
          <mxGeometry width="50" height="50" relative="1" as="geometry">
            <mxPoint x="380" y="960" as="sourcePoint" />
            <mxPoint x="208.54560394412488" y="830" as="targetPoint" />
          </mxGeometry>
        </mxCell>
        <mxCell id="PLZqTz8qko_gE4AXY9Jm-10" value="verification s il s agit d un client&amp;nbsp;" style="rounded=0;whiteSpace=wrap;html=1;" vertex="1" parent="WIyWlLk6GJQsqaUBKTNV-1">
          <mxGeometry x="160" y="850" width="120" height="50" as="geometry" />
        </mxCell>
        <mxCell id="PLZqTz8qko_gE4AXY9Jm-11" value="tjrs" style="rounded=0;whiteSpace=wrap;html=1;" vertex="1" parent="WIyWlLk6GJQsqaUBKTNV-1">
          <mxGeometry x="160" y="900" width="120" height="30" as="geometry" />
        </mxCell>
        <mxCell id="PLZqTz8qko_gE4AXY9Jm-13" value="" style="endArrow=classic;html=1;rounded=0;" edge="1" parent="WIyWlLk6GJQsqaUBKTNV-1">
          <mxGeometry width="50" height="50" relative="1" as="geometry">
            <mxPoint x="240" y="930" as="sourcePoint" />
            <mxPoint x="290" y="990" as="targetPoint" />
          </mxGeometry>
        </mxCell>
        <mxCell id="PLZqTz8qko_gE4AXY9Jm-14" value="" style="endArrow=classic;html=1;rounded=0;exitX=0.25;exitY=1;exitDx=0;exitDy=0;" edge="1" parent="WIyWlLk6GJQsqaUBKTNV-1" source="PLZqTz8qko_gE4AXY9Jm-11" target="PLZqTz8qko_gE4AXY9Jm-15">
          <mxGeometry width="50" height="50" relative="1" as="geometry">
            <mxPoint x="380" y="960" as="sourcePoint" />
            <mxPoint x="140" y="980" as="targetPoint" />
          </mxGeometry>
        </mxCell>
        <mxCell id="PLZqTz8qko_gE4AXY9Jm-15" value="non-client&amp;nbsp;" style="ellipse;whiteSpace=wrap;html=1;" vertex="1" parent="WIyWlLk6GJQsqaUBKTNV-1">
          <mxGeometry x="70" y="1030" width="110" height="30" as="geometry" />
        </mxCell>
        <mxCell id="PLZqTz8qko_gE4AXY9Jm-16" value="client" style="ellipse;whiteSpace=wrap;html=1;" vertex="1" parent="WIyWlLk6GJQsqaUBKTNV-1">
          <mxGeometry x="240" y="990" width="120" height="40" as="geometry" />
        </mxCell>
        <mxCell id="QAGAs0d7s2KeOODQNL1N-1" value="" style="endArrow=classic;html=1;rounded=0;exitX=0.5;exitY=1;exitDx=0;exitDy=0;" edge="1" parent="WIyWlLk6GJQsqaUBKTNV-1" source="PLZqTz8qko_gE4AXY9Jm-15" target="QAGAs0d7s2KeOODQNL1N-2">
          <mxGeometry width="50" height="50" relative="1" as="geometry">
            <mxPoint x="260" y="1190" as="sourcePoint" />
            <mxPoint x="310" y="1100" as="targetPoint" />
            <Array as="points" />
          </mxGeometry>
        </mxCell>
        <mxCell id="QAGAs0d7s2KeOODQNL1N-2" value="ajout client&amp;nbsp;" style="rounded=0;whiteSpace=wrap;html=1;" vertex="1" parent="WIyWlLk6GJQsqaUBKTNV-1">
          <mxGeometry x="65" y="1090" width="120" height="21" as="geometry" />
        </mxCell>
        <mxCell id="QAGAs0d7s2KeOODQNL1N-3" value="tjrs" style="rounded=0;whiteSpace=wrap;html=1;" vertex="1" parent="WIyWlLk6GJQsqaUBKTNV-1">
          <mxGeometry x="65" y="1111" width="120" height="20" as="geometry" />
        </mxCell>
        <mxCell id="QAGAs0d7s2KeOODQNL1N-5" value="" style="endArrow=classic;html=1;rounded=0;exitX=0.598;exitY=1.1;exitDx=0;exitDy=0;exitPerimeter=0;entryX=0;entryY=0.5;entryDx=0;entryDy=0;" edge="1" parent="WIyWlLk6GJQsqaUBKTNV-1" source="QAGAs0d7s2KeOODQNL1N-3" target="PLZqTz8qko_gE4AXY9Jm-16">
          <mxGeometry width="50" height="50" relative="1" as="geometry">
            <mxPoint x="260" y="1190" as="sourcePoint" />
            <mxPoint x="310" y="1140" as="targetPoint" />
            <Array as="points">
              <mxPoint x="170" y="1150" />
              <mxPoint x="210" y="1130" />
              <mxPoint x="210" y="1090" />
              <mxPoint x="190" y="1060" />
              <mxPoint x="190" y="1030" />
              <mxPoint x="190" y="1010" />
              <mxPoint x="200" y="990" />
              <mxPoint x="220" y="990" />
            </Array>
          </mxGeometry>
        </mxCell>
        <mxCell id="QAGAs0d7s2KeOODQNL1N-6" value="" style="endArrow=classic;html=1;rounded=0;exitX=0.58;exitY=1.075;exitDx=0;exitDy=0;exitPerimeter=0;" edge="1" parent="WIyWlLk6GJQsqaUBKTNV-1" source="PLZqTz8qko_gE4AXY9Jm-16">
          <mxGeometry width="50" height="50" relative="1" as="geometry">
            <mxPoint x="260" y="1190" as="sourcePoint" />
            <mxPoint x="309.88708133971295" y="1070.5" as="targetPoint" />
          </mxGeometry>
        </mxCell>
        <mxCell id="QAGAs0d7s2KeOODQNL1N-10" value="demande d achat produit" style="ellipse;whiteSpace=wrap;html=1;" vertex="1" parent="WIyWlLk6GJQsqaUBKTNV-1">
          <mxGeometry x="530" y="90" width="110" height="70" as="geometry" />
        </mxCell>
        <mxCell id="QAGAs0d7s2KeOODQNL1N-11" value="" style="endArrow=classic;html=1;rounded=0;exitX=0.5;exitY=1;exitDx=0;exitDy=0;" edge="1" parent="WIyWlLk6GJQsqaUBKTNV-1" source="QAGAs0d7s2KeOODQNL1N-10">
          <mxGeometry width="50" height="50" relative="1" as="geometry">
            <mxPoint x="430" y="180" as="sourcePoint" />
            <mxPoint x="585" y="210" as="targetPoint" />
          </mxGeometry>
        </mxCell>
        <mxCell id="QAGAs0d7s2KeOODQNL1N-13" value="verification de stock" style="rounded=0;whiteSpace=wrap;html=1;" vertex="1" parent="WIyWlLk6GJQsqaUBKTNV-1">
          <mxGeometry x="525" y="210" width="120" height="30" as="geometry" />
        </mxCell>
        <mxCell id="QAGAs0d7s2KeOODQNL1N-15" value="tjrs" style="rounded=0;whiteSpace=wrap;html=1;" vertex="1" parent="WIyWlLk6GJQsqaUBKTNV-1">
          <mxGeometry x="525" y="240" width="120" height="30" as="geometry" />
        </mxCell>
        <mxCell id="QAGAs0d7s2KeOODQNL1N-16" value="" style="endArrow=classic;html=1;rounded=0;exitX=0.25;exitY=1;exitDx=0;exitDy=0;entryX=0.5;entryY=0;entryDx=0;entryDy=0;" edge="1" parent="WIyWlLk6GJQsqaUBKTNV-1" source="QAGAs0d7s2KeOODQNL1N-15" target="QAGAs0d7s2KeOODQNL1N-18">
          <mxGeometry width="50" height="50" relative="1" as="geometry">
            <mxPoint x="430" y="180" as="sourcePoint" />
            <mxPoint x="520" y="310" as="targetPoint" />
          </mxGeometry>
        </mxCell>
        <mxCell id="QAGAs0d7s2KeOODQNL1N-17" value="" style="endArrow=classic;html=1;rounded=0;exitX=0.75;exitY=1;exitDx=0;exitDy=0;" edge="1" parent="WIyWlLk6GJQsqaUBKTNV-1" source="QAGAs0d7s2KeOODQNL1N-15">
          <mxGeometry width="50" height="50" relative="1" as="geometry">
            <mxPoint x="565" y="280" as="sourcePoint" />
            <mxPoint x="650" y="320" as="targetPoint" />
          </mxGeometry>
        </mxCell>
        <mxCell id="QAGAs0d7s2KeOODQNL1N-18" value="produit ajouter au panier" style="ellipse;whiteSpace=wrap;html=1;" vertex="1" parent="WIyWlLk6GJQsqaUBKTNV-1">
          <mxGeometry x="460" y="300" width="100" height="50" as="geometry" />
        </mxCell>
        <mxCell id="QAGAs0d7s2KeOODQNL1N-19" value="rupture de stock" style="ellipse;whiteSpace=wrap;html=1;" vertex="1" parent="WIyWlLk6GJQsqaUBKTNV-1">
          <mxGeometry x="610" y="320" width="100" height="60" as="geometry" />
        </mxCell>
        <mxCell id="QAGAs0d7s2KeOODQNL1N-31" value="" style="endArrow=classic;html=1;rounded=0;exitX=0.5;exitY=1;exitDx=0;exitDy=0;" edge="1" parent="WIyWlLk6GJQsqaUBKTNV-1" source="QAGAs0d7s2KeOODQNL1N-19">
          <mxGeometry width="50" height="50" relative="1" as="geometry">
            <mxPoint x="510" y="380" as="sourcePoint" />
            <mxPoint x="660" y="410" as="targetPoint" />
          </mxGeometry>
        </mxCell>
        <mxCell id="QAGAs0d7s2KeOODQNL1N-32" value="suggestion de continuation" style="rounded=0;whiteSpace=wrap;html=1;" vertex="1" parent="WIyWlLk6GJQsqaUBKTNV-1">
          <mxGeometry x="600" y="430" width="120" height="30" as="geometry" />
        </mxCell>
        <mxCell id="QAGAs0d7s2KeOODQNL1N-33" value="oui" style="rounded=0;whiteSpace=wrap;html=1;" vertex="1" parent="WIyWlLk6GJQsqaUBKTNV-1">
          <mxGeometry x="600" y="460" width="60" height="30" as="geometry" />
        </mxCell>
        <mxCell id="QAGAs0d7s2KeOODQNL1N-77" value="non" style="rounded=0;whiteSpace=wrap;html=1;" vertex="1" parent="WIyWlLk6GJQsqaUBKTNV-1">
          <mxGeometry x="660" y="460" width="60" height="30" as="geometry" />
        </mxCell>
        <mxCell id="QAGAs0d7s2KeOODQNL1N-78" value="" style="endArrow=classic;html=1;rounded=0;exitX=1;exitY=1;exitDx=0;exitDy=0;entryX=0;entryY=0.75;entryDx=0;entryDy=0;entryPerimeter=0;" edge="1" parent="WIyWlLk6GJQsqaUBKTNV-1" source="QAGAs0d7s2KeOODQNL1N-18" target="QAGAs0d7s2KeOODQNL1N-79">
          <mxGeometry width="50" height="50" relative="1" as="geometry">
            <mxPoint x="400" y="360" as="sourcePoint" />
            <mxPoint x="630" y="400" as="targetPoint" />
          </mxGeometry>
        </mxCell>
        <mxCell id="QAGAs0d7s2KeOODQNL1N-79" value="ou" style="shape=or;whiteSpace=wrap;html=1;direction=south;" vertex="1" parent="WIyWlLk6GJQsqaUBKTNV-1">
          <mxGeometry x="635" y="410" width="40" height="20" as="geometry" />
        </mxCell>
        <mxCell id="QAGAs0d7s2KeOODQNL1N-81" value="" style="endArrow=classic;html=1;rounded=0;exitX=0.25;exitY=1;exitDx=0;exitDy=0;entryX=0;entryY=0.5;entryDx=0;entryDy=0;" edge="1" parent="WIyWlLk6GJQsqaUBKTNV-1" source="QAGAs0d7s2KeOODQNL1N-33" target="QAGAs0d7s2KeOODQNL1N-10">
          <mxGeometry width="50" height="50" relative="1" as="geometry">
            <mxPoint x="400" y="360" as="sourcePoint" />
            <mxPoint x="450" y="310" as="targetPoint" />
            <Array as="points">
              <mxPoint x="600" y="520" />
              <mxPoint x="570" y="530" />
              <mxPoint x="530" y="530" />
              <mxPoint x="490" y="520" />
              <mxPoint x="390" y="440" />
              <mxPoint x="380" y="350" />
              <mxPoint x="410" y="260" />
              <mxPoint x="450" y="170" />
              <mxPoint x="480" y="130" />
            </Array>
          </mxGeometry>
        </mxCell>
        <mxCell id="QAGAs0d7s2KeOODQNL1N-82" value="" style="endArrow=classic;html=1;rounded=0;exitX=0.5;exitY=1;exitDx=0;exitDy=0;" edge="1" parent="WIyWlLk6GJQsqaUBKTNV-1" source="QAGAs0d7s2KeOODQNL1N-77">
          <mxGeometry width="50" height="50" relative="1" as="geometry">
            <mxPoint x="400" y="360" as="sourcePoint" />
            <mxPoint x="690" y="540" as="targetPoint" />
          </mxGeometry>
        </mxCell>
        <mxCell id="QAGAs0d7s2KeOODQNL1N-83" value="pannier cloture" style="ellipse;whiteSpace=wrap;html=1;" vertex="1" parent="WIyWlLk6GJQsqaUBKTNV-1">
          <mxGeometry x="640" y="540" width="100" height="60" as="geometry" />
        </mxCell>
        <mxCell id="QAGAs0d7s2KeOODQNL1N-84" value="" style="endArrow=classic;html=1;rounded=0;exitX=0.411;exitY=0.984;exitDx=0;exitDy=0;exitPerimeter=0;" edge="1" parent="WIyWlLk6GJQsqaUBKTNV-1" source="QAGAs0d7s2KeOODQNL1N-83">
          <mxGeometry width="50" height="50" relative="1" as="geometry">
            <mxPoint x="400" y="710" as="sourcePoint" />
            <mxPoint x="681" y="660" as="targetPoint" />
          </mxGeometry>
        </mxCell>
        <mxCell id="QAGAs0d7s2KeOODQNL1N-85" value="verification du panier" style="rounded=0;whiteSpace=wrap;html=1;" vertex="1" parent="WIyWlLk6GJQsqaUBKTNV-1">
          <mxGeometry x="620" y="660" width="120" height="30" as="geometry" />
        </mxCell>
        <mxCell id="QAGAs0d7s2KeOODQNL1N-86" value="vide" style="rounded=0;whiteSpace=wrap;html=1;" vertex="1" parent="WIyWlLk6GJQsqaUBKTNV-1">
          <mxGeometry x="680" y="690" width="60" height="30" as="geometry" />
        </mxCell>
        <mxCell id="QAGAs0d7s2KeOODQNL1N-87" value="plein" style="rounded=0;whiteSpace=wrap;html=1;" vertex="1" parent="WIyWlLk6GJQsqaUBKTNV-1">
          <mxGeometry x="620" y="690" width="60" height="30" as="geometry" />
        </mxCell>
        <mxCell id="QAGAs0d7s2KeOODQNL1N-88" value="" style="endArrow=classic;html=1;rounded=0;exitX=0.75;exitY=1;exitDx=0;exitDy=0;" edge="1" parent="WIyWlLk6GJQsqaUBKTNV-1" source="QAGAs0d7s2KeOODQNL1N-86">
          <mxGeometry width="50" height="50" relative="1" as="geometry">
            <mxPoint x="691" y="609" as="sourcePoint" />
            <mxPoint x="725" y="770" as="targetPoint" />
          </mxGeometry>
        </mxCell>
        <mxCell id="QAGAs0d7s2KeOODQNL1N-89" value="cloture" style="ellipse;whiteSpace=wrap;html=1;" vertex="1" parent="WIyWlLk6GJQsqaUBKTNV-1">
          <mxGeometry x="675" y="770" width="100" height="60" as="geometry" />
        </mxCell>
        <mxCell id="QAGAs0d7s2KeOODQNL1N-91" value="" style="endArrow=classic;html=1;rounded=0;exitX=0.5;exitY=1;exitDx=0;exitDy=0;" edge="1" parent="WIyWlLk6GJQsqaUBKTNV-1" source="QAGAs0d7s2KeOODQNL1N-87" target="PLZqTz8qko_gE4AXY9Jm-1">
          <mxGeometry width="50" height="50" relative="1" as="geometry">
            <mxPoint x="735" y="730" as="sourcePoint" />
            <mxPoint x="610" y="760" as="targetPoint" />
          </mxGeometry>
        </mxCell>
        <mxCell id="QAGAs0d7s2KeOODQNL1N-93" value="ajout adresse de livraison" style="rounded=0;whiteSpace=wrap;html=1;" vertex="1" parent="WIyWlLk6GJQsqaUBKTNV-1">
          <mxGeometry x="260" y="1071" width="120" height="39" as="geometry" />
        </mxCell>
        <mxCell id="QAGAs0d7s2KeOODQNL1N-94" value="tjrs" style="rounded=0;whiteSpace=wrap;html=1;" vertex="1" parent="WIyWlLk6GJQsqaUBKTNV-1">
          <mxGeometry x="260" y="1109" width="120" height="21" as="geometry" />
        </mxCell>
        <mxCell id="QAGAs0d7s2KeOODQNL1N-95" value="" style="endArrow=classic;html=1;rounded=0;exitX=0.646;exitY=1.06;exitDx=0;exitDy=0;exitPerimeter=0;" edge="1" parent="WIyWlLk6GJQsqaUBKTNV-1" source="QAGAs0d7s2KeOODQNL1N-94" target="QAGAs0d7s2KeOODQNL1N-96">
          <mxGeometry width="50" height="50" relative="1" as="geometry">
            <mxPoint x="400" y="1130" as="sourcePoint" />
            <mxPoint x="338" y="1200" as="targetPoint" />
          </mxGeometry>
        </mxCell>
        <mxCell id="QAGAs0d7s2KeOODQNL1N-96" value="devis" style="ellipse;whiteSpace=wrap;html=1;" vertex="1" parent="WIyWlLk6GJQsqaUBKTNV-1">
          <mxGeometry x="290" y="1160" width="100" height="40" as="geometry" />
        </mxCell>
        <mxCell id="QAGAs0d7s2KeOODQNL1N-97" value="avis d achat" style="ellipse;whiteSpace=wrap;html=1;" vertex="1" parent="WIyWlLk6GJQsqaUBKTNV-1">
          <mxGeometry x="414" y="1160" width="96" height="40" as="geometry" />
        </mxCell>
        <mxCell id="QAGAs0d7s2KeOODQNL1N-98" value="" style="endArrow=classic;html=1;rounded=0;exitX=0.5;exitY=1;exitDx=0;exitDy=0;" edge="1" parent="WIyWlLk6GJQsqaUBKTNV-1" source="QAGAs0d7s2KeOODQNL1N-97">
          <mxGeometry width="50" height="50" relative="1" as="geometry">
            <mxPoint x="400" y="1130" as="sourcePoint" />
            <mxPoint x="410" y="1260" as="targetPoint" />
          </mxGeometry>
        </mxCell>
        <mxCell id="QAGAs0d7s2KeOODQNL1N-99" value="" style="endArrow=classic;html=1;rounded=0;exitX=0.5;exitY=1;exitDx=0;exitDy=0;" edge="1" parent="WIyWlLk6GJQsqaUBKTNV-1" source="QAGAs0d7s2KeOODQNL1N-96">
          <mxGeometry width="50" height="50" relative="1" as="geometry">
            <mxPoint x="400" y="1130" as="sourcePoint" />
            <mxPoint x="390" y="1260" as="targetPoint" />
          </mxGeometry>
        </mxCell>
        <mxCell id="QAGAs0d7s2KeOODQNL1N-100" value="confirmation" style="rounded=0;whiteSpace=wrap;html=1;" vertex="1" parent="WIyWlLk6GJQsqaUBKTNV-1">
          <mxGeometry x="340" y="1260" width="120" height="30" as="geometry" />
        </mxCell>
        <mxCell id="QAGAs0d7s2KeOODQNL1N-101" value="oui" style="rounded=0;whiteSpace=wrap;html=1;" vertex="1" parent="WIyWlLk6GJQsqaUBKTNV-1">
          <mxGeometry x="340" y="1290" width="60" height="30" as="geometry" />
        </mxCell>
        <mxCell id="QAGAs0d7s2KeOODQNL1N-107" style="edgeStyle=orthogonalEdgeStyle;rounded=0;orthogonalLoop=1;jettySize=auto;html=1;entryX=0;entryY=0;entryDx=0;entryDy=0;" edge="1" parent="WIyWlLk6GJQsqaUBKTNV-1" source="QAGAs0d7s2KeOODQNL1N-102" target="QAGAs0d7s2KeOODQNL1N-106">
          <mxGeometry relative="1" as="geometry" />
        </mxCell>
        <mxCell id="QAGAs0d7s2KeOODQNL1N-102" value="non" style="rounded=0;whiteSpace=wrap;html=1;" vertex="1" parent="WIyWlLk6GJQsqaUBKTNV-1">
          <mxGeometry x="400" y="1290" width="60" height="30" as="geometry" />
        </mxCell>
        <mxCell id="QAGAs0d7s2KeOODQNL1N-104" value="" style="endArrow=classic;html=1;rounded=0;exitX=0.25;exitY=1;exitDx=0;exitDy=0;" edge="1" parent="WIyWlLk6GJQsqaUBKTNV-1" source="QAGAs0d7s2KeOODQNL1N-101">
          <mxGeometry width="50" height="50" relative="1" as="geometry">
            <mxPoint x="400" y="1360" as="sourcePoint" />
            <mxPoint x="355" y="1370" as="targetPoint" />
          </mxGeometry>
        </mxCell>
        <mxCell id="QAGAs0d7s2KeOODQNL1N-105" value="facture" style="ellipse;whiteSpace=wrap;html=1;" vertex="1" parent="WIyWlLk6GJQsqaUBKTNV-1">
          <mxGeometry x="304" y="1370" width="96" height="40" as="geometry" />
        </mxCell>
        <mxCell id="QAGAs0d7s2KeOODQNL1N-106" value="annulation" style="ellipse;whiteSpace=wrap;html=1;" vertex="1" parent="WIyWlLk6GJQsqaUBKTNV-1">
          <mxGeometry x="450" y="1380" width="96" height="40" as="geometry" />
        </mxCell>
      </root>
    </mxGraphModel>
  </diagram>
  <diagram name="Copy of Page-1" id="o-THdUmMIab05olmzSr1">
    <mxGraphModel dx="792" dy="594" grid="1" gridSize="10" guides="1" tooltips="1" connect="1" arrows="1" fold="1" page="1" pageScale="1" pageWidth="827" pageHeight="1169" math="0" shadow="0">
      <root>
        <mxCell id="VavWRkJ7x_IFSq5wiiPO-0" />
        <mxCell id="VavWRkJ7x_IFSq5wiiPO-1" parent="VavWRkJ7x_IFSq5wiiPO-0" />
        <mxCell id="VavWRkJ7x_IFSq5wiiPO-2" value="" style="rounded=0;html=1;jettySize=auto;orthogonalLoop=1;fontSize=11;endArrow=block;endFill=0;endSize=8;strokeWidth=1;shadow=0;labelBackgroundColor=none;edgeStyle=orthogonalEdgeStyle;" edge="1" parent="VavWRkJ7x_IFSq5wiiPO-1" source="VavWRkJ7x_IFSq5wiiPO-3" target="VavWRkJ7x_IFSq5wiiPO-6">
          <mxGeometry relative="1" as="geometry" />
        </mxCell>
        <mxCell id="VavWRkJ7x_IFSq5wiiPO-3" value="Lamp doesn&#39;t work" style="rounded=1;whiteSpace=wrap;html=1;fontSize=12;glass=0;strokeWidth=1;shadow=0;" vertex="1" parent="VavWRkJ7x_IFSq5wiiPO-1">
          <mxGeometry x="160" y="80" width="120" height="40" as="geometry" />
        </mxCell>
        <mxCell id="VavWRkJ7x_IFSq5wiiPO-4" value="Yes" style="rounded=0;html=1;jettySize=auto;orthogonalLoop=1;fontSize=11;endArrow=block;endFill=0;endSize=8;strokeWidth=1;shadow=0;labelBackgroundColor=none;edgeStyle=orthogonalEdgeStyle;" edge="1" parent="VavWRkJ7x_IFSq5wiiPO-1" source="VavWRkJ7x_IFSq5wiiPO-6" target="VavWRkJ7x_IFSq5wiiPO-10">
          <mxGeometry y="20" relative="1" as="geometry">
            <mxPoint as="offset" />
          </mxGeometry>
        </mxCell>
        <mxCell id="VavWRkJ7x_IFSq5wiiPO-5" value="No" style="edgeStyle=orthogonalEdgeStyle;rounded=0;html=1;jettySize=auto;orthogonalLoop=1;fontSize=11;endArrow=block;endFill=0;endSize=8;strokeWidth=1;shadow=0;labelBackgroundColor=none;" edge="1" parent="VavWRkJ7x_IFSq5wiiPO-1" source="VavWRkJ7x_IFSq5wiiPO-6" target="VavWRkJ7x_IFSq5wiiPO-7">
          <mxGeometry y="10" relative="1" as="geometry">
            <mxPoint as="offset" />
          </mxGeometry>
        </mxCell>
        <mxCell id="VavWRkJ7x_IFSq5wiiPO-6" value="Lamp&lt;br&gt;plugged in?" style="rhombus;whiteSpace=wrap;html=1;shadow=0;fontFamily=Helvetica;fontSize=12;align=center;strokeWidth=1;spacing=6;spacingTop=-4;" vertex="1" parent="VavWRkJ7x_IFSq5wiiPO-1">
          <mxGeometry x="170" y="170" width="100" height="80" as="geometry" />
        </mxCell>
        <mxCell id="VavWRkJ7x_IFSq5wiiPO-7" value="Plug in lamp" style="rounded=1;whiteSpace=wrap;html=1;fontSize=12;glass=0;strokeWidth=1;shadow=0;" vertex="1" parent="VavWRkJ7x_IFSq5wiiPO-1">
          <mxGeometry x="320" y="190" width="120" height="40" as="geometry" />
        </mxCell>
        <mxCell id="VavWRkJ7x_IFSq5wiiPO-8" value="No" style="rounded=0;html=1;jettySize=auto;orthogonalLoop=1;fontSize=11;endArrow=block;endFill=0;endSize=8;strokeWidth=1;shadow=0;labelBackgroundColor=none;edgeStyle=orthogonalEdgeStyle;" edge="1" parent="VavWRkJ7x_IFSq5wiiPO-1" source="VavWRkJ7x_IFSq5wiiPO-10" target="VavWRkJ7x_IFSq5wiiPO-11">
          <mxGeometry x="0.3333" y="20" relative="1" as="geometry">
            <mxPoint as="offset" />
          </mxGeometry>
        </mxCell>
        <mxCell id="VavWRkJ7x_IFSq5wiiPO-9" value="Yes" style="edgeStyle=orthogonalEdgeStyle;rounded=0;html=1;jettySize=auto;orthogonalLoop=1;fontSize=11;endArrow=block;endFill=0;endSize=8;strokeWidth=1;shadow=0;labelBackgroundColor=none;" edge="1" parent="VavWRkJ7x_IFSq5wiiPO-1" source="VavWRkJ7x_IFSq5wiiPO-10" target="VavWRkJ7x_IFSq5wiiPO-12">
          <mxGeometry y="10" relative="1" as="geometry">
            <mxPoint as="offset" />
          </mxGeometry>
        </mxCell>
        <mxCell id="VavWRkJ7x_IFSq5wiiPO-10" value="Bulb&lt;br&gt;burned out?" style="rhombus;whiteSpace=wrap;html=1;shadow=0;fontFamily=Helvetica;fontSize=12;align=center;strokeWidth=1;spacing=6;spacingTop=-4;" vertex="1" parent="VavWRkJ7x_IFSq5wiiPO-1">
          <mxGeometry x="170" y="290" width="100" height="80" as="geometry" />
        </mxCell>
        <mxCell id="VavWRkJ7x_IFSq5wiiPO-11" value="Repair Lamp" style="rounded=1;whiteSpace=wrap;html=1;fontSize=12;glass=0;strokeWidth=1;shadow=0;" vertex="1" parent="VavWRkJ7x_IFSq5wiiPO-1">
          <mxGeometry x="160" y="430" width="120" height="40" as="geometry" />
        </mxCell>
        <mxCell id="VavWRkJ7x_IFSq5wiiPO-12" value="Replace Bulb" style="rounded=1;whiteSpace=wrap;html=1;fontSize=12;glass=0;strokeWidth=1;shadow=0;" vertex="1" parent="VavWRkJ7x_IFSq5wiiPO-1">
          <mxGeometry x="320" y="310" width="120" height="40" as="geometry" />
        </mxCell>
        <mxCell id="VavWRkJ7x_IFSq5wiiPO-13" value="&lt;font style=&quot;font-size: 18px;&quot;&gt;commande&lt;/font&gt;" style="ellipse;whiteSpace=wrap;html=1;" vertex="1" parent="VavWRkJ7x_IFSq5wiiPO-1">
          <mxGeometry x="90" y="700" width="120" height="80" as="geometry" />
        </mxCell>
        <mxCell id="VavWRkJ7x_IFSq5wiiPO-14" value="" style="endArrow=classic;html=1;rounded=0;exitX=0.603;exitY=0.983;exitDx=0;exitDy=0;exitPerimeter=0;" edge="1" parent="VavWRkJ7x_IFSq5wiiPO-1" source="VavWRkJ7x_IFSq5wiiPO-13" target="VavWRkJ7x_IFSq5wiiPO-15">
          <mxGeometry width="50" height="50" relative="1" as="geometry">
            <mxPoint x="380" y="960" as="sourcePoint" />
            <mxPoint x="230" y="860" as="targetPoint" />
          </mxGeometry>
        </mxCell>
        <mxCell id="VavWRkJ7x_IFSq5wiiPO-15" value="" style="triangle;whiteSpace=wrap;html=1;direction=south;" vertex="1" parent="VavWRkJ7x_IFSq5wiiPO-1">
          <mxGeometry x="180" y="830" width="80" height="20" as="geometry" />
        </mxCell>
        <mxCell id="VavWRkJ7x_IFSq5wiiPO-16" value="verification s il s agit d un client&amp;nbsp;" style="rounded=0;whiteSpace=wrap;html=1;" vertex="1" parent="VavWRkJ7x_IFSq5wiiPO-1">
          <mxGeometry x="160" y="850" width="120" height="50" as="geometry" />
        </mxCell>
        <mxCell id="VavWRkJ7x_IFSq5wiiPO-17" value="tjrs" style="rounded=0;whiteSpace=wrap;html=1;" vertex="1" parent="VavWRkJ7x_IFSq5wiiPO-1">
          <mxGeometry x="160" y="900" width="120" height="30" as="geometry" />
        </mxCell>
        <mxCell id="VavWRkJ7x_IFSq5wiiPO-18" value="" style="endArrow=classic;html=1;rounded=0;" edge="1" parent="VavWRkJ7x_IFSq5wiiPO-1">
          <mxGeometry width="50" height="50" relative="1" as="geometry">
            <mxPoint x="240" y="930" as="sourcePoint" />
            <mxPoint x="290" y="990" as="targetPoint" />
          </mxGeometry>
        </mxCell>
        <mxCell id="VavWRkJ7x_IFSq5wiiPO-19" value="" style="endArrow=classic;html=1;rounded=0;exitX=0.25;exitY=1;exitDx=0;exitDy=0;" edge="1" parent="VavWRkJ7x_IFSq5wiiPO-1" source="VavWRkJ7x_IFSq5wiiPO-17" target="VavWRkJ7x_IFSq5wiiPO-20">
          <mxGeometry width="50" height="50" relative="1" as="geometry">
            <mxPoint x="380" y="960" as="sourcePoint" />
            <mxPoint x="140" y="980" as="targetPoint" />
          </mxGeometry>
        </mxCell>
        <mxCell id="VavWRkJ7x_IFSq5wiiPO-20" value="client&amp;nbsp;" style="ellipse;whiteSpace=wrap;html=1;" vertex="1" parent="VavWRkJ7x_IFSq5wiiPO-1">
          <mxGeometry x="70" y="960" width="120" height="50" as="geometry" />
        </mxCell>
        <mxCell id="VavWRkJ7x_IFSq5wiiPO-21" value="nonclient" style="ellipse;whiteSpace=wrap;html=1;" vertex="1" parent="VavWRkJ7x_IFSq5wiiPO-1">
          <mxGeometry x="240" y="990" width="120" height="60" as="geometry" />
        </mxCell>
      </root>
    </mxGraphModel>
  </diagram>
</mxfile>
